<svg width="125" height="122" viewBox="0 0 125 122" fill="none" xmlns="http://www.w3.org/2000/svg">
<path d="M62.4912 0C97.009 0 124.991 27.3106 124.991 61C124.991 94.6894 97.009 122 62.4912 122C51.2261 122 40.6577 119.09 31.5303 114H83.9912C86.2003 114 87.9912 112.209 87.9912 110C87.9912 107.86 86.3107 106.112 84.1973 106.005C84.129 106.001 84.0603 106 83.9912 106H20.2969C18.5373 104.427 16.8704 102.758 15.3047 101H75.9912C78.2003 101 79.9912 99.2091 79.9912 97C79.9912 94.7909 78.2003 93 75.9912 93H9.27246C8.24885 91.3818 7.29986 89.7139 6.43164 88H67.9912C70.2003 88 71.9912 86.2091 71.9912 84C71.9912 81.7909 70.2003 80 67.9912 80H3.08398C2.53461 78.3627 2.05435 76.695 1.64648 75H59.9912C62.2003 75 63.9912 73.2091 63.9912 71C63.9912 68.7909 62.2003 67 59.9912 67H0.290039C0.125156 65.3517 0.0277344 63.6841 0 62H51.9912C54.2003 62 55.9912 60.2091 55.9912 58C55.9912 55.7909 54.2003 54 51.9912 54H0.397461C0.595129 52.3113 0.865161 50.6439 1.20117 49H43.9912C46.2003 49 47.9912 47.2091 47.9912 45C47.9912 42.7909 46.2003 41 43.9912 41H3.42969C4.03471 39.2978 4.71453 37.6299 5.46582 36H35.9912C38.2003 36 39.9912 34.2091 39.9912 32C39.9912 29.7909 38.2003 28 35.9912 28H9.91895C11.0603 26.2715 12.2883 24.6027 13.5977 23H27.9912C30.2003 23 31.9912 21.2091 31.9912 19C31.9912 16.7909 30.2003 15 27.9912 15H21.4434C32.4241 5.65825 46.7805 0 62.4912 0Z" fill="url(#paint0_linear_18_54)"/>
<defs>
<linearGradient id="paint0_linear_18_54" x1="62.4912" y1="0" x2="62.4912" y2="122" gradientUnits="userSpaceOnUse">
<stop stop-color="#D768E3"/>
<stop offset="0.966346" stop-color="#64206D"/>
</linearGradient>
</defs>
</svg>
